<svg viewBox="0 0 320 160" role="img" aria-labelledby="title desc" xmlns="http://www.w3.org/2000/svg">
  <title>Noether Pair</title>
  <desc>Noether Pair. Pdgedit group reference generated from pdgedit-tiles.json.</desc>
  <g transform="translate(0.00 0.00)">
    <rect width="80" height="80" fill="#000000"/>
    <rect x="6.00" y="6.00" width="68.00" height="68.00" rx="10.00" fill="none" stroke="#a259ff" stroke-width="4"/>
    <text x="40" y="31.50" fill="#f5f7ff" font-family="'Helvetica Neue', Helvetica, Arial, sans-serif" font-size="11.75" font-weight="700" text-anchor="middle">Pro</text>
    <text x="40" y="43.50" fill="#f5f7ff" font-family="'Helvetica Neue', Helvetica, Arial, sans-serif" font-size="11.75" font-weight="700" text-anchor="middle">Noether</text>
    <text x="40" y="56.50" fill="#f5f7ff" font-family="'Helvetica Neue', Helvetica, Arial, sans-serif" font-size="11.75" font-weight="700" text-anchor="middle">Core</text>
  </g>
  <g transform="translate(80.00 0.00)">
    <rect width="80" height="80" fill="#000000"/>
    <rect x="6.00" y="6.00" width="68.00" height="68.00" rx="10.00" fill="none" stroke="#a259ff" stroke-width="4"/>
    <svg x="4.00" y="4.00" width="72" height="72" viewBox="0 0 120 120" aria-hidden="true">
      <ellipse cx="60" cy="60" rx="38" ry="13" fill="none" stroke="rgba(162, 89, 255, 0.96)" stroke-width="5" style="filter:drop-shadow(0 0 4px rgba(162, 89, 255, 0.22))"/>
      <line x1="60" y1="33.3333333333" x2="60" y2="86.6666666667" fill="none" stroke="rgba(162, 89, 255, 0.82)" stroke-width="4" stroke-linecap="butt" opacity="0.84"/>
      <circle cx="25" cy="60" r="8.3333333333" fill="#1879ff" vector-effect="non-scaling-stroke" style="filter:drop-shadow(0 0 4px rgba(24, 121, 255, 0.34))"/>
      <circle cx="95" cy="60" r="8.3333333333" fill="#ff3d3d" vector-effect="non-scaling-stroke" style="filter:drop-shadow(0 0 4px rgba(255, 61, 61, 0.32))"/>
    </svg>
  </g>
  <g transform="translate(160.00 0.00)">
    <rect width="80" height="80" fill="#000000"/>
    <rect x="6.00" y="6.00" width="68.00" height="68.00" rx="10.00" fill="none" stroke="#a259ff" stroke-width="4"/>
    <svg x="4.00" y="4.00" width="72" height="72" viewBox="0 0 120 120" aria-hidden="true">
      <ellipse cx="60" cy="60" rx="38" ry="13" fill="none" stroke="rgba(162, 89, 255, 0.96)" stroke-width="5" style="filter:drop-shadow(0 0 4px rgba(162, 89, 255, 0.22))"/>
      <line x1="60" y1="33.3333333333" x2="60" y2="86.6666666667" fill="none" stroke="rgba(162, 89, 255, 0.82)" stroke-width="4" stroke-linecap="butt" opacity="0.84"/>
      <circle cx="25" cy="60" r="8.3333333333" fill="#1879ff" vector-effect="non-scaling-stroke" style="filter:drop-shadow(0 0 4px rgba(24, 121, 255, 0.34))"/>
      <circle cx="95" cy="60" r="8.3333333333" fill="#ff3d3d" vector-effect="non-scaling-stroke" style="filter:drop-shadow(0 0 4px rgba(255, 61, 61, 0.32))"/>
    </svg>
  </g>
  <g transform="translate(240.00 0.00)">
    <rect width="80" height="80" fill="#000000"/>
    <rect x="6.00" y="6.00" width="68.00" height="68.00" rx="10.00" fill="none" stroke="#a259ff" stroke-width="4"/>
    <svg x="4.00" y="4.00" width="72" height="72" viewBox="0 0 120 120" aria-hidden="true">
      <ellipse cx="60" cy="60" rx="38" ry="13" fill="none" stroke="rgba(162, 89, 255, 0.96)" stroke-width="5" style="filter:drop-shadow(0 0 4px rgba(162, 89, 255, 0.22))"/>
      <line x1="60" y1="33.3333333333" x2="60" y2="86.6666666667" fill="none" stroke="rgba(162, 89, 255, 0.82)" stroke-width="4" stroke-linecap="butt" opacity="0.84"/>
      <circle cx="25" cy="60" r="8.3333333333" fill="#1879ff" vector-effect="non-scaling-stroke" style="filter:drop-shadow(0 0 4px rgba(24, 121, 255, 0.34))"/>
      <circle cx="95" cy="60" r="8.3333333333" fill="#ff3d3d" vector-effect="non-scaling-stroke" style="filter:drop-shadow(0 0 4px rgba(255, 61, 61, 0.32))"/>
    </svg>
  </g>
  <g transform="translate(0.00 80.00)">
    <rect width="80" height="80" fill="#000000"/>
    <rect x="6.00" y="6.00" width="68.00" height="68.00" rx="10.00" fill="none" stroke="#a259ff" stroke-width="4"/>
    <text x="40" y="31.50" fill="#f5f7ff" font-family="'Helvetica Neue', Helvetica, Arial, sans-serif" font-size="11.75" font-weight="700" text-anchor="middle">Anti</text>
    <text x="40" y="43.50" fill="#f5f7ff" font-family="'Helvetica Neue', Helvetica, Arial, sans-serif" font-size="11.75" font-weight="700" text-anchor="middle">Noether</text>
    <text x="40" y="56.50" fill="#f5f7ff" font-family="'Helvetica Neue', Helvetica, Arial, sans-serif" font-size="11.75" font-weight="700" text-anchor="middle">Core</text>
  </g>
  <g transform="translate(80.00 80.00)">
    <rect width="80" height="80" fill="#000000"/>
    <rect x="6.00" y="6.00" width="68.00" height="68.00" rx="10.00" fill="none" stroke="#a259ff" stroke-width="4"/>
    <svg x="4.00" y="4.00" width="72" height="72" viewBox="0 0 120 120" aria-hidden="true">
      <ellipse cx="60" cy="60" rx="38" ry="13" fill="none" stroke="rgba(162, 89, 255, 0.96)" stroke-width="5" style="filter:drop-shadow(0 0 4px rgba(162, 89, 255, 0.22))"/>
      <line x1="60" y1="33.3333333333" x2="60" y2="86.6666666667" fill="none" stroke="rgba(162, 89, 255, 0.82)" stroke-width="4" stroke-linecap="butt" opacity="0.84"/>
      <circle cx="25" cy="60" r="8.3333333333" fill="#ff3d3d" vector-effect="non-scaling-stroke" style="filter:drop-shadow(0 0 4px rgba(255, 61, 61, 0.32))"/>
      <circle cx="95" cy="60" r="8.3333333333" fill="#1879ff" vector-effect="non-scaling-stroke" style="filter:drop-shadow(0 0 4px rgba(24, 121, 255, 0.34))"/>
    </svg>
  </g>
  <g transform="translate(160.00 80.00)">
    <rect width="80" height="80" fill="#000000"/>
    <rect x="6.00" y="6.00" width="68.00" height="68.00" rx="10.00" fill="none" stroke="#a259ff" stroke-width="4"/>
    <svg x="4.00" y="4.00" width="72" height="72" viewBox="0 0 120 120" aria-hidden="true">
      <ellipse cx="60" cy="60" rx="38" ry="13" fill="none" stroke="rgba(162, 89, 255, 0.96)" stroke-width="5" style="filter:drop-shadow(0 0 4px rgba(162, 89, 255, 0.22))"/>
      <line x1="60" y1="33.3333333333" x2="60" y2="86.6666666667" fill="none" stroke="rgba(162, 89, 255, 0.82)" stroke-width="4" stroke-linecap="butt" opacity="0.84"/>
      <circle cx="25" cy="60" r="8.3333333333" fill="#ff3d3d" vector-effect="non-scaling-stroke" style="filter:drop-shadow(0 0 4px rgba(255, 61, 61, 0.32))"/>
      <circle cx="95" cy="60" r="8.3333333333" fill="#1879ff" vector-effect="non-scaling-stroke" style="filter:drop-shadow(0 0 4px rgba(24, 121, 255, 0.34))"/>
    </svg>
  </g>
  <g transform="translate(240.00 80.00)">
    <rect width="80" height="80" fill="#000000"/>
    <rect x="6.00" y="6.00" width="68.00" height="68.00" rx="10.00" fill="none" stroke="#a259ff" stroke-width="4"/>
    <svg x="4.00" y="4.00" width="72" height="72" viewBox="0 0 120 120" aria-hidden="true">
      <ellipse cx="60" cy="60" rx="38" ry="13" fill="none" stroke="rgba(162, 89, 255, 0.96)" stroke-width="5" style="filter:drop-shadow(0 0 4px rgba(162, 89, 255, 0.22))"/>
      <line x1="60" y1="33.3333333333" x2="60" y2="86.6666666667" fill="none" stroke="rgba(162, 89, 255, 0.82)" stroke-width="4" stroke-linecap="butt" opacity="0.84"/>
      <circle cx="25" cy="60" r="8.3333333333" fill="#ff3d3d" vector-effect="non-scaling-stroke" style="filter:drop-shadow(0 0 4px rgba(255, 61, 61, 0.32))"/>
      <circle cx="95" cy="60" r="8.3333333333" fill="#1879ff" vector-effect="non-scaling-stroke" style="filter:drop-shadow(0 0 4px rgba(24, 121, 255, 0.34))"/>
    </svg>
  </g>
</svg>
